<?xml version="1.0" standalone="no"?>
<!DOCTYPE svg PUBLIC "-//W3C//DTD SVG 20010904//EN"
 "http://www.w3.org/TR/2001/REC-SVG-20010904/DTD/svg10.dtd">
<svg version="1.0" xmlns="http://www.w3.org/2000/svg"
 width="4167.000000pt" height="4167.000000pt" viewBox="0 0 4167.000000 4167.000000"
 preserveAspectRatio="xMidYMid meet">
<metadata>
Created by potrace 1.16, written by Peter Selinger 2001-2019
</metadata>
<g transform="translate(0.000000,4167.000000) scale(0.100000,-0.100000)"
fill="#000000" stroke="none">
<path d="M20162 30647 c-364 -590 -672 -1098 -686 -1128 -37 -84 -73 -208 -92
-310 -18 -105 -21 -358 -5 -449 l9 -55 -367 -370 c-201 -203 -392 -401 -423
-440 -314 -392 -502 -821 -580 -1320 -29 -185 -31 -556 -4 -740 34 -236 103
-494 182 -677 61 -142 62 -130 -4 -101 -227 100 -466 168 -737 209 -162 25
-569 25 -728 1 -467 -72 -875 -238 -1229 -499 -141 -104 -192 -151 -563 -519
l-360 -358 -48 9 c-136 26 -377 17 -541 -21 -194 -45 -184 -40 -896 -479 -217
-134 -431 -266 -475 -293 -953 -585 -1056 -651 -1043 -663 7 -7 139 -90 293
-184 285 -175 1048 -646 1185 -730 711 -439 749 -460 890 -500 163 -45 423
-63 580 -41 l55 8 360 -356 c198 -196 407 -394 465 -441 482 -386 1055 -590
1670 -593 421 -3 749 67 1167 250 8 3 2 -20 -13 -53 -100 -226 -172 -481 -210
-749 -22 -150 -25 -512 -6 -665 65 -512 262 -980 582 -1380 47 -58 245 -267
442 -466 197 -198 356 -362 354 -365 -9 -9 -20 -151 -19 -259 2 -184 41 -375
108 -525 12 -27 131 -228 265 -445 297 -482 291 -471 735 -1194 198 -322 362
-585 365 -585 3 0 30 41 61 92 69 113 120 196 429 697 134 217 271 440 305
495 34 55 164 267 290 470 241 390 291 483 325 605 48 172 65 440 39 599 l-10
64 384 386 c296 297 404 414 474 508 334 446 513 951 539 1520 17 372 -68 824
-220 1170 -19 43 -33 79 -31 81 2 2 20 -5 42 -16 21 -11 94 -41 163 -67 754
-285 1628 -208 2321 205 240 144 333 223 750 637 l386 384 83 -12 c115 -16
378 -6 490 20 95 22 212 62 280 96 25 13 365 220 755 460 391 241 868 535
1062 654 194 119 353 218 353 221 0 4 -826 516 -1179 731 -42 26 -278 171
-525 323 -246 152 -465 285 -486 296 -183 94 -468 142 -708 120 l-125 -11
-351 349 c-349 347 -459 446 -611 553 -299 210 -653 362 -1009 434 -219 44
-290 50 -551 49 -206 -1 -273 -5 -385 -23 -245 -39 -468 -103 -668 -190 -51
-22 -92 -37 -92 -35 0 3 8 21 19 42 38 76 112 285 146 414 220 841 37 1711
-503 2388 -42 52 -239 259 -437 460 l-361 365 7 50 c11 75 10 320 -1 400 -15
100 -46 217 -83 310 -20 47 -137 249 -288 495 -141 228 -435 705 -654 1060
-219 355 -405 657 -414 672 -9 16 -19 28 -22 28 -3 0 -303 -483 -667 -1073z
m-658 -2289 c8 -18 104 -179 215 -358 l200 -325 -233 -235 c-300 -303 -398
-426 -546 -683 -238 -416 -368 -945 -346 -1417 7 -155 8 -169 32 -330 14 -94
80 -373 100 -425 16 -40 -98 71 -170 165 -244 322 -408 733 -460 1155 -18 143
-18 430 0 575 53 423 213 817 473 1165 48 64 189 215 395 423 176 177 321 322
323 322 1 0 9 -15 17 -32z m2992 -280 c165 -167 328 -337 361 -378 578 -721
696 -1707 302 -2539 -101 -213 -261 -452 -366 -546 -54 -48 -61 -48 -42 2 23
60 70 262 89 377 91 569 9 1118 -245 1631 -153 310 -282 482 -613 817 l-224
226 35 59 c19 32 105 173 192 313 87 140 167 274 178 298 12 23 24 42 27 42 3
0 141 -136 306 -302z m-2206 -1003 c111 -181 218 -361 237 -398 125 -250 176
-610 134 -962 -16 -139 -16 -141 -58 -196 -324 -435 -494 -981 -476 -1524 7
-224 56 -497 123 -690 l20 -60 -276 275 c-349 348 -455 475 -589 704 -239 409
-354 916 -315 1386 40 485 196 899 483 1280 78 104 497 535 508 523 3 -5 98
-156 209 -338z m1511 138 c108 -109 223 -232 256 -273 280 -350 456 -769 514
-1230 29 -227 12 -556 -42 -810 -69 -321 -251 -699 -469 -975 -35 -44 -197
-215 -361 -380 l-298 -300 29 94 c41 130 76 293 96 441 23 178 15 526 -16 700
-66 370 -220 734 -433 1022 l-54 74 -16 140 c-28 257 -6 538 58 744 41 131 85
222 181 380 253 415 350 569 354 570 3 0 94 -89 201 -197z m-4346 -2237 c398
-63 763 -217 1080 -455 90 -68 200 -183 160 -167 -11 4 -75 23 -141 41 -739
203 -1560 70 -2197 -357 -165 -110 -278 -208 -517 -444 l-235 -232 -300 185
c-165 102 -326 200 -357 217 l-58 33 323 319 c208 207 358 347 422 395 350
261 747 422 1170 474 144 18 512 13 650 -9z m7485 0 c436 -70 843 -255 1177
-533 54 -45 224 -208 377 -361 l279 -280 -42 -22 c-23 -11 -184 -109 -358
-216 l-316 -195 -231 228 c-127 126 -269 259 -316 296 -476 379 -1029 580
-1630 592 -292 6 -536 -24 -795 -99 -66 -19 -121 -33 -122 -32 -7 6 96 112
145 150 337 258 730 420 1167 480 139 19 524 14 665 -8z m-6806 -792 c435 -54
810 -205 1169 -471 68 -51 204 -177 409 -381 169 -168 306 -307 304 -309 -2
-2 -16 1 -32 7 -122 47 -399 103 -579 118 -589 48 -1199 -129 -1661 -482 -39
-30 -51 -33 -180 -47 -268 -27 -487 -15 -703 41 -174 45 -262 90 -647 327
l-354 218 187 188 c104 104 233 225 288 270 344 278 777 465 1200 516 50 6
101 13 115 14 67 9 388 4 484 -9z m5912 5 c453 -43 867 -205 1234 -482 107
-81 525 -487 513 -498 -15 -14 -689 -427 -739 -452 -77 -39 -219 -87 -339
-113 -146 -33 -448 -43 -632 -21 l-121 15 -84 61 c-240 174 -513 302 -803 377
-458 117 -880 107 -1344 -32 -45 -14 -85 -23 -87 -21 -8 8 562 562 656 639
344 277 769 460 1200 517 167 22 382 26 546 10z m-6551 -1909 c212 -19 201
-16 297 -86 312 -223 657 -364 1053 -431 155 -26 573 -26 725 0 124 21 274 56
385 91 l80 25 -305 -302 c-385 -383 -521 -489 -806 -631 -336 -167 -649 -243
-1034 -250 -564 -11 -1096 169 -1545 525 -85 67 -483 454 -475 462 23 21 684
421 750 453 247 122 559 173 875 144z m7061 -1 c161 -16 357 -69 489 -133 61
-29 211 -116 335 -193 124 -76 272 -168 329 -203 l104 -64 -204 -201 c-324
-320 -529 -464 -857 -604 -723 -308 -1599 -230 -2247 202 -179 119 -255 186
-560 488 l-309 307 113 -34 c143 -43 323 -80 470 -95 165 -17 484 -7 640 21
377 66 717 208 1017 423 l91 66 134 14 c168 18 314 20 455 6z m-4325 -748
c-148 -496 -141 -993 21 -1479 78 -236 213 -494 358 -687 37 -49 38 -52 50
-190 17 -190 8 -468 -19 -596 -27 -125 -63 -235 -110 -334 -32 -67 -437 -734
-460 -758 -13 -13 -410 400 -502 523 -337 451 -503 971 -486 1520 12 370 86
670 247 995 86 175 171 309 289 455 74 92 630 664 638 656 2 -2 -10 -49 -26
-105z m1822 -556 c211 -261 375 -584 457 -899 192 -746 25 -1527 -456 -2127
-37 -46 -156 -173 -264 -282 l-196 -199 -118 194 c-66 106 -149 240 -185 298
-148 239 -189 323 -235 483 -62 214 -78 432 -51 697 l18 175 67 95 c183 257
306 524 380 819 58 235 65 293 64 591 0 220 -3 295 -18 375 -21 122 -67 309
-96 390 l-20 60 286 -285 c157 -157 322 -330 367 -385z m4340 353 c161 -99
314 -191 341 -205 l50 -25 -305 -302 c-410 -407 -537 -506 -844 -657 -342
-168 -668 -243 -1060 -243 -110 0 -243 6 -295 13 -432 59 -810 212 -1150 466
-74 56 -183 165 -165 165 4 0 44 -11 89 -25 705 -214 1503 -114 2144 270 235
140 399 275 696 574 146 146 172 168 188 160 11 -6 151 -92 311 -191z m-10554
-31 c249 -245 335 -318 521 -442 640 -427 1427 -558 2175 -360 72 19 141 37
155 41 41 12 -57 -90 -166 -172 -295 -222 -664 -379 -1029 -438 -326 -54 -685
-40 -991 38 -325 82 -658 249 -924 462 -81 64 -680 650 -680 665 0 4 14 12 30
19 17 7 176 102 353 211 177 110 324 199 326 199 2 0 106 -100 230 -223z
m3077 -1025 c-23 -63 -72 -276 -90 -382 -90 -548 -2 -1123 250 -1629 80 -161
133 -248 237 -391 102 -139 158 -201 390 -436 l208 -211 -107 -174 c-59 -96
-151 -246 -206 -334 -54 -87 -101 -170 -104 -182 -4 -13 -9 -23 -13 -23 -15 0
-600 599 -665 679 -286 358 -466 787 -521 1241 -17 148 -13 467 9 615 61 402
215 778 451 1094 61 82 163 187 172 177 2 -2 -3 -21 -11 -44z m3963 -86 c172
-216 331 -527 410 -799 64 -220 91 -400 96 -642 7 -403 -69 -742 -250 -1110
-146 -297 -249 -429 -651 -835 l-302 -304 -15 34 c-8 19 -105 181 -215 360
l-200 324 221 226 c240 243 342 363 460 541 434 655 558 1494 332 2250 -14 46
-25 84 -25 86 0 13 98 -80 139 -131z"/>
<path d="M22915 11528 c-246 -34 -400 -186 -413 -407 -7 -136 34 -238 137
-334 63 -59 111 -82 311 -152 260 -90 326 -130 371 -222 30 -62 28 -177 -5
-248 -79 -173 -304 -233 -510 -137 -35 16 -82 46 -104 66 -50 46 -131 164
-163 238 -44 106 -50 90 -49 -147 1 -118 5 -217 9 -220 5 -2 25 13 45 35 l37
40 37 -19 c89 -45 173 -63 317 -68 237 -9 379 32 494 142 163 156 168 429 10
584 -66 65 -136 100 -330 167 -254 87 -339 137 -383 226 -51 103 -29 255 48
333 52 51 101 75 187 88 178 27 338 -77 446 -290 26 -51 53 -93 60 -93 10 0
13 42 13 200 0 223 -2 230 -59 159 -30 -36 -35 -39 -49 -26 -76 66 -297 108
-457 85z"/>
<path d="M24435 11531 c-82 -14 -137 -31 -197 -63 -233 -123 -297 -422 -135
-628 69 -88 129 -122 357 -203 240 -86 277 -104 331 -159 75 -77 89 -211 34
-323 -100 -206 -420 -234 -611 -53 -68 64 -101 111 -155 218 -28 57 -44 79
-51 72 -11 -11 -1 -432 10 -432 4 0 22 18 42 41 l35 41 51 -26 c86 -43 159
-58 316 -63 116 -4 162 -2 225 12 227 50 364 191 379 391 13 172 -60 311 -209
399 -26 14 -134 57 -241 94 -199 70 -260 99 -322 153 -106 94 -112 286 -11
395 50 54 93 77 174 93 185 37 361 -73 465 -289 23 -49 49 -90 56 -90 9 -1 12
45 12 199 0 221 -5 234 -53 161 l-26 -40 -68 35 c-37 19 -93 40 -124 48 -73
18 -220 27 -284 17z"/>
<path d="M26615 11530 c-132 -21 -214 -58 -296 -137 -153 -146 -167 -388 -32
-558 66 -83 129 -119 344 -194 273 -96 328 -126 377 -210 24 -41 27 -56 27
-136 -1 -77 -5 -97 -27 -141 -71 -137 -248 -204 -417 -159 -146 38 -253 134
-338 301 -26 52 -54 94 -61 94 -9 0 -11 -46 -6 -212 3 -117 8 -215 11 -218 3
-3 21 14 42 38 l36 43 51 -25 c86 -43 159 -58 316 -63 116 -4 162 -2 225 12
168 37 277 114 340 243 37 74 38 79 37 181 0 131 -23 196 -94 273 -70 77 -137
113 -354 188 -253 87 -331 133 -379 224 -18 33 -22 58 -22 126 0 101 23 158
87 215 66 60 119 79 223 79 82 1 96 -2 157 -32 94 -46 183 -143 240 -261 23
-49 49 -90 56 -90 9 -1 12 45 12 199 0 220 -3 230 -53 160 l-28 -40 -52 29
c-29 16 -81 38 -118 49 -74 23 -230 34 -304 22z"/>
<path d="M29963 11485 c-24 -30 -65 -69 -93 -87 -45 -30 -49 -36 -44 -61 6
-30 -25 -109 -283 -707 -229 -530 -274 -605 -380 -632 -25 -6 -43 -16 -43 -24
0 -12 41 -14 230 -14 189 0 230 2 230 14 0 9 -17 16 -47 21 -55 8 -90 24 -117
54 -18 20 -19 27 -8 79 7 31 45 139 84 239 l73 183 260 1 c291 2 306 2 313 -5
10 -11 120 -323 138 -393 15 -58 16 -76 6 -98 -13 -27 -80 -64 -119 -65 -14 0
-23 -6 -23 -15 0 -13 42 -15 315 -15 266 0 315 2 315 14 0 8 -14 18 -32 21
-91 20 -148 74 -203 193 -28 60 -336 877 -483 1280 -15 39 -31 72 -37 72 -5 0
-29 -25 -52 -55z m-90 -252 c3 -10 57 -150 121 -312 64 -162 116 -300 116
-308 0 -10 -49 -13 -260 -13 -143 0 -260 2 -260 5 0 4 77 191 217 533 26 61
50 112 54 112 4 0 9 -8 12 -17z"/>
<path d="M27748 11513 c-60 -2 -108 -8 -108 -13 0 -10 5 -11 93 -30 63 -14 96
-36 116 -80 14 -31 16 -101 17 -580 1 -562 -4 -696 -31 -737 -22 -33 -70 -61
-132 -74 -32 -7 -53 -18 -53 -26 0 -11 63 -13 345 -13 284 0 345 2 345 14 0 9
-18 15 -51 19 -64 8 -133 48 -156 90 -16 28 -18 66 -21 280 l-3 247 118 0
c366 1 573 90 670 289 25 51 28 66 28 166 0 102 -2 114 -31 176 -41 86 -114
158 -206 204 -122 59 -174 66 -523 69 -170 1 -358 1 -417 -1z m652 -50 c71
-18 132 -54 187 -111 180 -189 127 -521 -103 -644 -70 -38 -142 -55 -267 -63
l-107 -7 0 368 c1 372 6 449 31 465 21 14 197 8 259 -8z"/>
<path d="M10900 11495 c0 -9 9 -15 25 -15 31 0 94 -31 116 -56 35 -40 80 -150
325 -797 139 -368 255 -671 258 -675 27 -27 88 121 307 746 54 156 103 290
107 299 10 17 15 4 221 -577 161 -455 165 -465 176 -464 24 2 99 194 271 693
101 295 196 567 211 605 50 128 119 203 205 226 83 23 35 30 -202 30 -150 0
-240 -4 -240 -10 0 -5 12 -12 28 -16 61 -13 94 -27 122 -51 28 -23 30 -30 30
-88 0 -44 -11 -101 -35 -182 -52 -174 -278 -843 -284 -843 -7 0 -298 809 -341
950 -36 113 -37 130 -7 157 32 29 54 39 120 53 31 6 57 16 57 21 0 5 -137 9
-340 9 -216 0 -340 -4 -340 -10 0 -5 12 -12 28 -15 84 -18 109 -29 147 -69 39
-41 53 -71 120 -246 l33 -85 -88 -255 c-163 -472 -187 -537 -196 -515 -4 11
-39 101 -77 200 -210 548 -307 822 -307 869 0 48 47 87 123 100 20 4 37 11 37
16 0 6 -118 10 -305 10 -264 0 -305 -2 -305 -15z"/>
<path d="M13412 11498 c2 -6 30 -17 62 -23 84 -17 112 -49 127 -145 15 -98 6
-1133 -11 -1200 -18 -70 -76 -119 -163 -135 -22 -4 -37 -13 -37 -21 0 -12 103
-14 658 -14 l659 0 51 198 c29 108 52 203 52 210 0 31 -29 5 -75 -69 -63 -101
-158 -197 -235 -238 -88 -47 -176 -61 -370 -58 -225 3 -258 20 -274 137 -8 54
-8 581 -1 588 7 8 191 4 240 -4 56 -9 128 -47 159 -85 33 -39 79 -128 96 -186
10 -31 19 -43 32 -43 18 0 18 14 16 338 -3 282 -5 337 -17 337 -9 0 -21 -24
-32 -63 -22 -77 -60 -144 -97 -170 -76 -53 -125 -66 -294 -77 l-108 -7 -1 179
c-1 284 2 476 7 500 5 19 15 22 81 29 85 8 265 0 363 -17 103 -17 170 -59 304
-191 111 -110 136 -131 136 -109 0 4 -31 84 -69 177 l-69 169 -597 3 c-458 2
-596 -1 -593 -10z"/>
<path d="M15130 11500 c0 -5 12 -12 28 -16 119 -25 177 -73 187 -155 12 -94
-1 -1148 -14 -1200 -7 -26 -24 -58 -40 -73 -26 -25 -123 -66 -156 -66 -8 0
-15 -7 -15 -15 0 -13 83 -15 690 -15 380 0 690 2 690 4 0 2 7 39 15 82 8 44
24 133 35 199 12 66 24 130 27 143 3 15 1 22 -8 22 -8 0 -35 -44 -60 -98 -72
-149 -152 -227 -282 -271 -131 -45 -433 -53 -547 -15 -89 31 -84 -1 -88 614
-4 612 0 705 32 752 23 36 87 72 154 88 96 24 36 30 -303 30 -219 0 -345 -4
-345 -10z"/>
<path d="M16872 11498 c2 -6 27 -17 55 -23 27 -6 67 -22 88 -35 67 -42 69 -52
73 -450 2 -195 -1 -468 -6 -606 -8 -214 -12 -257 -28 -290 -22 -45 -74 -78
-151 -95 -32 -7 -53 -18 -53 -26 0 -11 117 -13 692 -11 l693 3 37 200 c54 289
50 307 -30 142 -78 -159 -179 -245 -333 -282 -149 -36 -442 -29 -524 12 -39
20 -35 16 -46 60 -13 57 -12 1223 1 1259 25 64 85 104 193 128 15 4 27 11 27
16 0 6 -126 10 -346 10 -263 0 -345 -3 -342 -12z"/>
<path d="M18600 11500 c0 -5 12 -12 28 -16 103 -22 171 -77 193 -156 14 -53 6
-979 -11 -1106 -18 -144 -68 -206 -183 -227 -22 -4 -37 -13 -37 -21 0 -12 46
-14 265 -14 218 0 265 2 265 14 0 8 -17 16 -47 20 -74 10 -134 46 -161 95 -34
60 -41 200 -41 766 l0 470 67 -73 c37 -40 301 -346 587 -680 430 -502 524
-607 545 -607 l25 0 2 365 c1 370 11 846 18 910 11 97 18 121 45 158 29 40 99
82 137 82 11 0 26 7 33 15 11 13 -19 15 -260 15 -205 0 -271 -3 -268 -12 2 -6
26 -17 54 -23 94 -22 162 -77 184 -152 14 -46 27 -999 14 -990 -5 3 -234 269
-509 591 l-500 585 -222 1 c-140 0 -223 -4 -223 -10z"/>
<path d="M20722 11498 c2 -6 30 -17 61 -23 65 -13 100 -41 119 -94 19 -52 17
-1150 -1 -1236 -17 -78 -56 -117 -139 -142 -34 -10 -62 -24 -62 -30 0 -10 138
-13 658 -13 l658 0 52 199 c29 109 52 203 52 210 0 30 -29 4 -69 -61 -94 -153
-221 -257 -351 -289 -84 -21 -413 -19 -462 3 -72 33 -73 33 -76 393 l-4 320
84 -2 c191 -5 265 -26 322 -94 33 -39 79 -128 96 -186 7 -24 19 -43 27 -43 11
0 13 62 13 340 0 269 -3 340 -13 340 -7 0 -20 -29 -30 -69 -46 -177 -131 -229
-399 -247 l-98 -6 0 346 c0 321 1 347 18 354 28 11 340 7 421 -7 115 -18 178
-57 314 -193 105 -105 137 -131 137 -112 0 3 -32 84 -71 180 l-71 174 -595 0
c-453 0 -594 -3 -591 -12z"/>
</g>
</svg>
